<?xml version="1.0" encoding="UTF-8" standalone="no"?>
<svg
   xmlns:dc="http://purl.org/dc/elements/1.1/"
   xmlns:cc="http://creativecommons.org/ns#"
   xmlns:rdf="http://www.w3.org/1999/02/22-rdf-syntax-ns#"
   xmlns:svg="http://www.w3.org/2000/svg"
   xmlns="http://www.w3.org/2000/svg"
   xmlns:sodipodi="http://sodipodi.sourceforge.net/DTD/sodipodi-0.dtd"
   xmlns:inkscape="http://www.inkscape.org/namespaces/inkscape"
   version="1.1"
   x="0px"
   y="0px"
   viewBox="-909 478 100 100"
   xml:space="preserve"
   id="svg2"
   inkscape:version="0.48.4 r9939"
   width="100%"
   height="100%"
   sodipodi:docname="noun_436004_cc.svg"><metadata
     id="metadata24"><rdf:RDF><cc:Work
         rdf:about=""><dc:format>image/svg+xml</dc:format><dc:type
           rdf:resource="http://purl.org/dc/dcmitype/StillImage" /><dc:title></dc:title></cc:Work></rdf:RDF></metadata><defs
     id="defs22" /><sodipodi:namedview
     pagecolor="#ffffff"
     bordercolor="#666666"
     borderopacity="1"
     objecttolerance="10"
     gridtolerance="10"
     guidetolerance="10"
     inkscape:pageopacity="0"
     inkscape:pageshadow="2"
     inkscape:window-width="1600"
     inkscape:window-height="848"
     id="namedview20"
     showgrid="false"
     inkscape:zoom="1.8917836"
     inkscape:cx="-13.167903"
     inkscape:cy="62.375"
     inkscape:window-x="-8"
     inkscape:window-y="-8"
     inkscape:window-maximized="1"
     inkscape:current-layer="svg2" /><style
     type="text/css"
     id="style4">
	.st0{fill:none;}
</style><g
     id="g6"
     transform="translate(0,-0.25)"><circle
       class="st0"
       cx="-860.79999"
       cy="501.5"
       r="15"
       id="circle8"
       sodipodi:cx="-860.79999"
       sodipodi:cy="501.5"
       sodipodi:rx="15"
       sodipodi:ry="15"
       style="fill:none"
       d="m -845.79999,501.5 c 0,8.28427 -6.71573,15 -15,15 -8.28427,0 -15,-6.71573 -15,-15 0,-8.28427 6.71573,-15 15,-15 8.28427,0 15,6.71573 15,15 z" /><path
       d="m -860.8,522.3 c 11.4,0 20.8,-9.3 20.8,-20.8 0,-11.4 -9.3,-20.8 -20.8,-20.8 -11.4,0 -20.8,9.3 -20.8,20.8 0,11.4 9.4,20.8 20.8,20.8 z m 0,-35.8 c 8.3,0 15,6.7 15,15 0,8.3 -6.7,15 -15,15 -8.3,0 -15,-6.7 -15,-15 0,-8.3 6.7,-15 15,-15 z"
       id="path10"
       inkscape:connector-curvature="0" /><polygon
       points="-848,556.8 -848,563.3 -835.5,563.3 -835.5,575.8 -829.1,575.8 -829.1,563.3 -816.6,563.3 -816.6,556.8 -829.1,556.8 -829.1,544.4 -835.5,544.4 -835.5,556.8 "
       id="polygon12" /><path
       d="m -876.9,530.3 c 1.8,-1 4.2,-0.3 7.7,0.9 2.5,0.9 5.4,1.9 8.5,1.9 3.1,0 5.9,-1 8.5,-1.9 3.5,-1.2 5.7,-1.9 7.6,-0.9 2.9,1.6 5.2,3.6 7.1,6.7 h 7.1 c -2.8,-5.5 -6.6,-9.1 -11.4,-11.7 -4.2,-2.3 -8.5,-0.8 -12.3,0.6 -2.4,0.8 -4.5,1.6 -6.6,1.6 -2.1,0 -4.3,-0.7 -6.6,-1.6 -3.9,-1.4 -8.1,-2.9 -12.4,-0.6 -11.3,6.2 -17.2,18.2 -17.2,34.7 v 2.9 h 42 v -5.7 h -36.2 c 0.7,-16.1 8,-23.5 14.2,-26.9 z"
       id="path14"
       inkscape:connector-curvature="0" /></g></svg>