<svg id="Слой_1" data-name="Слой 1" xmlns="http://www.w3.org/2000/svg" viewBox="0 0 538.04 595.28"><defs><style>.cls-1{fill:#936;fill-rule:evenodd;}</style></defs><title>logo_КВС-without-text</title><path class="cls-1" d="M456.56,0A296.65,296.65,0,0,1,696,120.6c2.94,4-1.34,9.69-6.17,4C639,65.05,563.6,27.8,480.47,27.8A276.08,276.08,0,0,0,439,30.92c-10.42,1.86-30.14,11.56-30.14,37.79v48.7c17.57-.18,46.41,20.85,46.41,33.08,0,1.68-.52,3.6-2.89,3.6-5.11,0-9.53-10-43-10-32.46,0-61.54,21.1-69.63,37.56H509A8.67,8.67,0,0,1,509,199H336.79l-1,7H533.41a10.44,10.44,0,1,1,0,20.88H405.94V450.57h61.35a9.51,9.51,0,0,1,9.48,9.48h0a9.51,9.51,0,0,1-9.48,9.48H363.87l.75,5.24,1.85,1.85h67.35a9.51,9.51,0,0,1,9.48,9.48h0a9.51,9.51,0,0,1-9.48,9.48h-26c-6.23,0-10.83,4.9-10.83,10.13,0,8.83,19.18,7.17,19.18,24.66,0,15.79-9.83,21.46-17.64,21.46-10.05,0-16.06-12.61-16.06-20.67,0-14.17,5.55-12.84,5.55-23.58,0-6.1-3.46-8-5.18-12-.32-.73-1.07.4-2.74.4a17,17,0,0,1-12.87-6.67c-3.79-4.69-5.93-8.77-15-13.47s-19.33-13.18-21.35-22.34l-50-226.66H255.52a10.44,10.44,0,1,1,0-20.88h38.14c14.67-53.2,57-79.41,93.08-88.62V62.11c0-6.61-3.15-14.31-15.85-11.51A278.27,278.27,0,0,0,204.43,306c0,153.63,123.59,278.17,276,278.17a274.85,274.85,0,0,0,62.74-7.21c4.42-1,5.58,3.84,2,5a298,298,0,0,1-88.64,13.4c-164.38,0-297.64-133.26-297.64-297.64S292.16.18,456.56,0ZM346.69,450.59l2.59,0h36.54V226.84h-86Z" transform="translate(-158.92)"/></svg>